<svg id="Logo" xmlns="http://www.w3.org/2000/svg" viewBox="0 0 830.46 300"><defs><style>.cls-1{fill:#1a1a1a;}</style></defs><path class="cls-1" d="M152.72,186.66a37.42,37.42,0,0,1,0-74.83,35.6,35.6,0,0,1,32.06,19.47l13.77-7.49c-8.71-16-26.46-26.76-46.14-26.76-28.94,0-53.41,23.37-53.41,52.2s24.47,52.19,53.41,52.19c19.71,0,37.48-10.83,46.18-26.84l-13.77-7.49A35.59,35.59,0,0,1,152.72,186.66Z"/><polygon class="cls-1" points="534.95 99.98 496.11 182.59 457.28 99.98 440.29 99.98 487.5 199.99 504.73 199.99 552.41 99.98 534.95 99.98"/><polygon class="cls-1" points="307.83 199.99 323.41 199.99 323.41 115.53 415.96 115.53 415.96 199.99 431.34 199.99 431.34 99.98 307.83 99.99 307.83 199.99"/><path class="cls-1" d="M702.93,143.28l-19.69-3.21c-13.48-2.35-18.4-7.7-18.4-15,0-9,9-14.76,24-14.76,15.83,0,26.31,5.78,28,18.19l0,.32,14.5-4.9c-4.07-20-23.22-26.88-42.56-26.88-24,0-40.23,11.13-40.23,29.53,0,16.9,13.27,24.18,29.53,27l22.46,3.64c9.63,1.71,16.27,6.63,16.27,15,0,10.05-10.49,15.83-25.89,15.83-18.19,0-28.46-7.06-31.46-20.33h-.14l-14.17,4.79c4.73,20,21.89,29,45.34,29,24.39,0,41.94-10.91,41.94-30.38C732.46,152.05,717.26,145.63,702.93,143.28Z"/><path class="cls-1" d="M255,97.06c-24.54,0-39.51,10.31-42.64,26.88l14.5,4.9c1.94-14.63,15.4-18.51,27.95-18.51,16.81,0,24.83,6.49,24.9,14.77h0c0,7.28-9.45,12.63-22.93,15l-19.69,3.21c-14.33,2.35-29.52,8.77-29.52,27.82,0,20.57,17.64,30.38,42.15,30.38,12.51,0,23.08-4.95,29.43-12.46h.72v11h15.07V167.73l0-39.6C294.89,109.49,282.37,97.06,255,97.06Zm24.71,67.42c0,12.64-13.92,23.52-30.42,23.52-15.41,0-26.1-5.78-26.1-15.83,0-8.35,6.63-13.75,16.26-15.46,13.08-2.71,27.22-4.55,35.43-9.26a34.42,34.42,0,0,0,4.83-2.95Z"/><path class="cls-1" d="M596.39,97.06c-24.54,0-39.51,10.31-42.65,26.88l14.5,4.9c1.94-14.63,15.4-18.51,28-18.51,16.81,0,24.84,6.49,24.9,14.77h0c0,7.28-9.45,12.63-22.93,15l-19.69,3.21C564.14,145.63,549,152.05,549,171.1c0,20.57,17.64,30.38,42.15,30.38,12.51,0,23.08-4.95,29.43-12.46h.72v11h15.07V167.73l0-39.6C636.29,109.49,623.77,97.06,596.39,97.06Zm24.71,67.42c0,12.64-13.93,23.52-30.43,23.52-15.4,0-26.1-5.78-26.1-15.83,0-8.35,6.63-13.75,16.26-15.46,13.09-2.71,27.22-4.55,35.43-9.26a34.55,34.55,0,0,0,4.84-2.95Z"/></svg>