<?xml version="1.0" encoding="UTF-8"?>
<svg id="Layer_1" data-name="Layer 1" xmlns="http://www.w3.org/2000/svg" version="1.1" viewBox="0 0 595.3 118.9">
  <defs>
    <style>
      .cls-1 {
        fill: #272525;
        stroke-width: 0px;
      }
    </style>
  </defs>
  <path class="cls-1" d="M308.4,75.6c-11.2.5-21.1.7-30.2.7,0-10,.3-20,.8-30v-.9h-5.2v.9c.5,11.2.7,21,.7,30-9,0-18.8-.2-30-.7h-.9v5.3h.9c10-.6,20.1-.9,30-.9,0,9.1-.2,19-.7,30.2v.9h5.2v-.9c-.6-10-.9-20.1-.9-30.2,10.1,0,20.2.3,30.2.8h.9v-5.2h-.9.1Z"/>
  <path class="cls-1" d="M85.1,100.6c-12.6,8-22.5,11.8-33.1,11.8-25.3,0-47.8-18.5-47.8-53.5S27.6,4.2,52,5.2c11.8,1.1,27.2,7.8,33.1,26.5-5.9,3.8-14.7,10.7-14.7,10.7,1-12.8-6.7-28.2-18.5-30.3-21.3-2.9-35.1,18.5-35.1,46.9s16.6,47.6,37,46.7c14.7,0,23.4-14.5,27.2-31.1l4,26.1h0Z"/>
  <path class="cls-1" d="M102.7,6.2v77c0,12.4.2,24.2,1.9,28.2h-13.7c1.5-4,1.9-15.8,1.9-28.2V23.2c0-5.1-.8-9-2.9-12.2,0,0,12.8-4.8,12.8-4.8Z"/>
  <path class="cls-1" d="M397.4,101.1c-12.6,8-22.5,11.8-33.1,11.8-25.3,0-47.8-18.5-47.8-53.5s23.4-54.7,47.8-53.7c11.8,1.1,27.2,7.8,33.1,26.5-5.9,3.8-14.7,10.7-14.7,10.7,1-12.8-6.7-28.2-18.5-30.3-21.3-2.9-35.1,18.5-35.1,46.9s16.6,47.6,37,46.7c14.7,0,23.4-14.5,27.2-31.1l4,26.1h.1Z"/>
  <path class="cls-1" d="M591.5,78.5c0,18.9-11.5,34.8-31.7,34.8s-31.3-16-31.3-34.4,11.7-34.9,31.6-34.9,31.5,16,31.5,34.5h0ZM579.9,82.8c0-17.3-7.1-32.4-22-32.4s-17.7,11.1-17.7,24,7.1,32.4,22,32.4,17.7-11.1,17.7-24Z"/>
  <path class="cls-1" d="M464.1,78.5c0,18.9-11.5,34.8-31.7,34.8s-31.3-16-31.3-34.4,11.7-34.9,31.6-34.9,31.5,16,31.5,34.5h-.1ZM452.4,82.8c0-17.3-7.1-32.4-22-32.4s-17.7,11.1-17.7,24,7.1,32.4,22,32.4,17.7-11.1,17.7-24Z"/>
  <path class="cls-1" d="M233.7,78.5c0,18.9-11.5,34.8-31.7,34.8s-31.3-16-31.3-34.4,11.7-34.9,31.6-34.9,31.5,16,31.5,34.5h-.1ZM222,82.8c0-17.3-7.1-32.4-22-32.4s-17.7,11.1-17.7,24,7.1,32.4,22,32.4,17.7-11.1,17.7-24Z"/>
  <path class="cls-1" d="M152.8,64.7c0-9.7-5.5-15.2-13.1-15.2s-15.1,6.5-17.3,15.2h30.4ZM141.8,43c12.1,0,23.5,10.8,23.5,25v3.2h-44.8c0,1.1-.2,3.2-.2,5.3,0,15.2,9.7,25,21.5,25s16.4-3.2,22.9-13c-1.1,13-10.9,23.8-23.8,23.8-19.6,0-31.4-15.2-31.4-33.5s14.1-35.8,32.4-35.8h-.1Z"/>
  <path class="cls-1" d="M512.3,71.5c2.1-14.9-5.1-20.2-12.6-20.6-10.7-.6-19.2,10.1-19.2,26.9s9.5,24.4,20.2,25c9.5.6,17-3.8,23.2-13.1-1,12.6-10.7,23.2-24.2,23.2-19.2,0-30.9-16-30.9-33s13.7-34.9,31.8-35.6c9.5-.4,21.1,5,24.4,19.6-4.2,3.2-12.8,7.6-12.8,7.6h.1Z"/>
</svg>