<?xml version="1.0" encoding="UTF-8"?>
<svg id="Layer_1" xmlns="http://www.w3.org/2000/svg" version="1.1" viewBox="0 0 1113.4 110.9">
  <!-- Generator: Adobe Illustrator 29.5.0, SVG Export Plug-In . SVG Version: 2.1.0 Build 137)  -->
  <path d="M570,80.5S499,11,499.1,10.9h-6.9v92.3h6.9V33.5l70.7,69.8.2-.2v.2h6.9V10.9h-6.9v69.6Z"/>
  <path d="M740,10.9h-6.9v92.3h69.3v-22.2h-62.3V10.9Z"/>
  <path d="M655.7,10.9h-46.1v92.3h46.1c62.2-.3,62.2-92.1,0-92.3ZM655.7,81h-39.1v-47.9h39.1c51.3.2,51.3,47.7,0,47.9Z"/>
  <path d="M112.4,56.1v47.7h6.9v-23.3h64.3v23.3h6.9v-47.7h0c-.3-62.6-77.9-62.6-78.1,0ZM119.6,59.5c0-35,63.9-35,63.9,0h-.2s-63.8,0-63.8,0Z"/>
  <path d="M1072.3,51.5c-20.5-5.4-26.9-5.9-26.9-10.2s8.6-8.3,25.5-8.3,27.8,8,29.1,9.3l5.5-14.9c-2.3-3.1-15.6-18.9-36-18.8-16.1,0-33.8,9.6-33.8,25.7s9.5,18,36.7,24.3c23.1,5.3,27.3,5.6,27.3,9.2,0,5.7-9.7,12.6-25.8,12.6s-31.8-5.8-36.7-16l-6.3,13.9c5,13.2,20.3,25.9,42.8,25.9,18.7.1,36.2-13.8,36.2-28s-8.1-17-37.5-24.8Z"/>
  <path d="M389.8,103.4h69.3v-22.3h-62.3v-20.4h62.3v-6.9h-62.3v-20.6h62.3V11.1h-69.3v92.3Z"/>
  <path d="M832.6,103.4h69.3v-23.3h-62.3v-19.4h62.3v-6.9h-62.3v-21h62.3V11.1h-69.3v92.3Z"/>
  <polygon points="8.5 33.3 25.9 33.3 25.9 80.6 8.5 80.6 8.5 103.5 50.3 103.5 50.3 80.6 32.8 80.6 32.8 33.3 50.3 33.3 50.3 11.1 8.5 11.1 8.5 33.3"/>
  <path d="M299.6,11.5l-34.6,62.3-34.9-62.3h-11.9v92.3h6.9V31.8l33.9,57.5h11.4l34.4-57.7v72.1h6.9V11.5h-12.2Z"/>
  <path d="M973.2,51.5c-20.5-5.4-26.9-5.9-26.9-10.2s8.6-8.3,25.5-8.3,27.8,8,29.1,9.3l5.5-14.9c-2.3-3.1-15.6-18.9-36-18.8-16.1,0-33.8,9.6-33.8,25.7s9.5,18,36.7,24.3c23.1,5.3,27.3,5.6,27.3,9.2,0,5.7-9.7,12.6-25.8,12.6s-31.8-5.8-36.7-16l-6.3,13.9c5,13.2,20.3,25.9,42.8,25.9,18.7.1,36.2-13.8,36.2-28s-8.1-17-37.5-24.8Z"/>
</svg>