<?xml version="1.0" encoding="utf-8"?>
<!-- Generator: Adobe Illustrator 26.5.0, SVG Export Plug-In . SVG Version: 6.00 Build 0)  -->
<svg version="1.1" id="Layer_1" xmlns="http://www.w3.org/2000/svg" xmlns:xlink="http://www.w3.org/1999/xlink" x="0px" y="0px"
	 viewBox="0 0 571.06 240" style="enable-background:new 0 0 571.06 240;" xml:space="preserve">
<style type="text/css">
	.st0{fill:#12100D;}
</style>
<g>
	<g>
		<path class="st0" d="M116.06,40l-3.2,0c-6.39,36.23-11.17,72.57-12.35,108.8c0,0-0.04,7.08,0,10.01v0.04h-0.16h-3.2v-0.04
			c0.04-2.93,0-10.01,0-10.01C95.95,112.57,91.18,76.23,84.78,40l-3.2,0H39.99v160h35.2l0.8,0c-2.07-35.71-6.47-71.3-12.03-106.63
			l-1.35-7.65h2.98h0.28L91.19,200h3.17h3.85h1.21h3.85h3.17l25.32-114.29h0.28h2.98l-1.35,7.65
			c-5.56,35.34-9.96,70.92-12.03,106.63l0.8,0h35.2V40H116.06z"/>
	</g>
	<g>
		<path class="st0" d="M454.45,40v160h-36.57V40H454.45z"/>
	</g>
	<g>
		<polygon class="st0" points="531.06,65.14 531.06,40 463.6,40 463.6,200 531.06,200 531.06,174.86 500.17,174.86 500.17,124.59 
			523.03,124.59 523.03,99.43 500.17,99.43 500.17,65.14 		"/>
	</g>
	<g>
		<path class="st0" d="M209.83,37.67c-31.16,0-43.87,39.7-44.58,73.15v18.29c0.71,33.45,13.42,73.15,44.58,73.15
			s43.87-39.7,44.58-73.15v-18.29C253.7,77.37,240.99,37.67,209.83,37.67z M213.26,171.97L213.26,171.97l-0.01,0.01
			c-0.13,2.53-1.16,5.08-3.42,5.14c-2.26-0.05-3.29-2.61-3.42-5.14l-0.01-0.01v0c-1.52-34.17-1.56-67.82-0.1-102l0.1-1.71
			c0.06-2.68,1.08-5.39,3.43-5.44c2.35,0.05,3.37,2.77,3.43,5.44v0l0,0l0.1,1.71C214.82,104.15,214.79,137.8,213.26,171.97z"/>
	</g>
	<g>
		<path class="st0" d="M350.81,121.64l0-1.7l0-1.7c37.54-6.9,58.28-37.71,59.45-78.25h-38.9h0c-0.69,31.22-13.34,63.32-41.1,63.96
			c-27.76-0.64-40.41-32.73-41.1-63.96h0h-38.9c1.18,40.54,21.91,71.35,59.45,78.25l0,1.7l0,1.7c-37.54,6.9-58.28,37.82-59.45,78.36
			h38.9h0c0.69-31.22,13.34-63.43,41.1-64.06c27.76,0.64,40.41,32.84,41.1,64.06h0h38.9C409.09,159.46,388.35,128.55,350.81,121.64z
			"/>
	</g>
</g>
</svg>
