<svg xmlns="http://www.w3.org/2000/svg" width="420mm" height="100.13mm" viewBox="0 0 1190.551 283.834">
  <g>
    <path d="M86.25,220.239c-46.048.014-78.508-32.719-78.5-75.7,0-42.159,32.446-74.892,78.487-74.906s78.51,32.761,78.51,74.906C164.746,187.52,132.3,220.239,86.25,220.239Zm0-35.205c23.859,0,41.042-17.47,41.049-40.5,0-22.19-17.2-39.66-41.049-39.673-23.864.013-41.063,17.483-41.063,39.673C45.187,167.551,62.386,185.049,86.25,185.034Z" fill="#222221"/>
    <path d="M188.535,216.106,188.528,8.075H228.2V216.106Z" fill="#222221"/>
    <path d="M303.972,271.586l-26.63-.027L269.857,240.8l29.954-.015c9.16,0,14.147-3.6,16.366-11.924l3.883-14.692H282.614L249.322,73.528h40.225l21.91,109.859,14.433-.029,21.9-109.83h40.5L349.463,235.5C343.919,259.369,330.317,271.573,303.972,271.586Z" fill="#222221"/>
    <path d="M455.544,196.764l15.619-26.141a94.629,94.629,0,0,0,50.524,12.541c14.411-.657,20.173-5.5,20.263-11.759.07-5.558-4.231-11.618-18.6-13.239-10.277-1.2-14.223-1.172-23.041-2.541-24.983-3.882-40.966-16.213-40.966-42.676-.006-23.67,23.825-42.885,52.674-43.066,43.989-.28,60.558,15.137,60.558,15.137l-14.852,26.3s-17.664-10.306-43.429-8.337c-7.352.559-17.456,3.212-17.141,12.289.23,6.242,4.643,10.418,12.616,11.507,5.586.754,15.9,2.095,26.533,3.9,25.325,4.287,43.038,13.811,43.038,38.779-.005,25.834-24.772,45.748-52.094,46.656C474.968,217.809,455.544,196.764,455.544,196.764Z" fill="#222221"/>
    <path d="M642.7,120.964v95.142H603.045L603.038,8.075,642.7,8.061l-.007,88.2a57.636,57.636,0,0,1,48.555-26.6c33.012-.015,52.423,22.455,52.423,56.569v89.877H704.009L704,136.494c0-18.308-8.323-31.351-28.844-31.351A41.322,41.322,0,0,0,642.7,120.964Z" fill="#222221"/>
    <path d="M842.685,220.239c-43.27,0-75.18-32.439-75.173-76.261,0-41.335,32.455-74.347,74.614-74.347,47.989,0,73.5,39.673,73.509,80.45H802.179c2.78,23.013,18.581,36.881,40.506,36.881,15.256,0,29.946-7.751,35.776-20.793h35.233C906.2,199.474,876.792,220.253,842.685,220.239Zm-38.278-92.348h73.23c-4.441-16.366-16.925-26.364-35.24-26.337C824.1,101.527,809.665,111.525,804.407,127.891Z" fill="#222221"/>
    <path d="M1008.737,220.253c-43.276,0-75.165-32.453-75.165-76.275,0-41.335,32.448-74.318,74.613-74.347,47.983.029,73.51,39.673,73.5,80.45l-113.442-.014c2.766,23.041,18.58,36.895,40.491,36.895,15.257,0,29.954-7.751,35.791-20.793h35.219C1072.255,199.474,1042.859,220.253,1008.737,220.253Zm-38.284-92.362h73.237c-4.434-16.366-16.925-26.364-35.226-26.364S975.738,111.525,970.453,127.891Z" fill="#222221"/>
    <path d="M1157.4,104.864l-.006,111.242h-39.653V104.864l-24.695.013.005-31.349h24.683V33.6h39.66l.013,39.925h24.962l-.006,31.336Z" fill="#222221"/>
  </g>
  <g>
    <path d="M86.25,220.239c-46.048.014-78.508-32.719-78.5-75.7,0-42.159,32.446-74.892,78.487-74.906s78.51,32.761,78.51,74.906C164.746,187.52,132.3,220.239,86.25,220.239Zm0-35.205c23.859,0,41.042-17.47,41.049-40.5,0-22.19-17.2-39.66-41.049-39.673-23.864.013-41.063,17.483-41.063,39.673C45.187,167.551,62.386,185.049,86.25,185.034Z" fill="#222221"/>
    <path d="M188.535,216.106,188.528,8.075H228.2V216.106Z" fill="#222221"/>
    <path d="M303.972,271.586l-26.63-.027L269.857,240.8l29.954-.015c9.16,0,14.147-3.6,16.366-11.924l3.883-14.692H282.614L249.322,73.528h40.225l21.91,109.859,14.433-.029,21.9-109.83h40.5L349.463,235.5C343.919,259.369,330.317,271.573,303.972,271.586Z" fill="#222221"/>
    <path d="M455.544,196.764l15.619-26.141a94.629,94.629,0,0,0,50.524,12.541c14.411-.657,20.173-5.5,20.263-11.759.07-5.558-4.231-11.618-18.6-13.239-10.277-1.2-14.223-1.172-23.041-2.541-24.983-3.882-40.966-16.213-40.966-42.676-.006-23.67,23.825-42.885,52.674-43.066,43.989-.28,60.558,15.137,60.558,15.137l-14.852,26.3s-17.664-10.306-43.429-8.337c-7.352.559-17.456,3.212-17.141,12.289.23,6.242,4.643,10.418,12.616,11.507,5.586.754,15.9,2.095,26.533,3.9,25.325,4.287,43.038,13.811,43.038,38.779-.005,25.834-24.772,45.748-52.094,46.656C474.968,217.809,455.544,196.764,455.544,196.764Z" fill="#222221"/>
    <path d="M642.7,120.964v95.142H603.045L603.038,8.075,642.7,8.061l-.007,88.2a57.636,57.636,0,0,1,48.555-26.6c33.012-.015,52.423,22.455,52.423,56.569v89.877H704.009L704,136.494c0-18.308-8.323-31.351-28.844-31.351A41.322,41.322,0,0,0,642.7,120.964Z" fill="#222221"/>
    <path d="M842.685,220.239c-43.27,0-75.18-32.439-75.173-76.261,0-41.335,32.455-74.347,74.614-74.347,47.989,0,73.5,39.673,73.509,80.45H802.179c2.78,23.013,18.581,36.881,40.506,36.881,15.256,0,29.946-7.751,35.776-20.793h35.233C906.2,199.474,876.792,220.253,842.685,220.239Zm-38.278-92.348h73.23c-4.441-16.366-16.925-26.364-35.24-26.337C824.1,101.527,809.665,111.525,804.407,127.891Z" fill="#222221"/>
    <path d="M1008.737,220.253c-43.276,0-75.165-32.453-75.165-76.275,0-41.335,32.448-74.318,74.613-74.347,47.983.029,73.51,39.673,73.5,80.45l-113.442-.014c2.766,23.041,18.58,36.895,40.491,36.895,15.257,0,29.954-7.751,35.791-20.793h35.219C1072.255,199.474,1042.859,220.253,1008.737,220.253Zm-38.284-92.362h73.237c-4.434-16.366-16.925-26.364-35.226-26.364S975.738,111.525,970.453,127.891Z" fill="#222221"/>
    <path d="M1157.4,104.864l-.006,111.242h-39.653V104.864l-24.695.013.005-31.349h24.683V33.6h39.66l.013,39.925h24.962l-.006,31.336Z" fill="#222221"/>
  </g>
</svg>
