<svg xmlns="http://www.w3.org/2000/svg" width="2764.011" height="996.633" viewBox="0 0 2764.011 996.633">
  <polygon points="1132.014 593.327 905.347 593.327 905.347 655.743 984.188 655.743 984.188 926.211 1052.079 926.211 1052.079 655.743 1132.014 655.743 1132.014 593.327" fill="#38062b"/>
  <path d="M1231.661,626.178,1116.684,960.157h67.891l31.755-91.981h107.312l31.755,91.981h67.891L1308.311,626.178Zm4.38,185.057,33.945-99.646,33.945,99.646Z" fill="#38062b"/>
  <path d="M690.724,264.824,605.313,17.351h-67.89L652.4,351.33H729.05L844.026,17.351H776.135L744.38,109.332" fill="#38062b"/>
  <polygon points="1822.967 592.232 1756.172 592.232 1756.172 926.211 1945.609 926.211 1945.609 863.796 1822.967 863.796 1822.967 592.232" fill="#38062b"/>
  <path d="M869.211,730.2c-6.57-10.95-14.235-20.8-25.185-29.565-9.855-7.665-21.9-13.14-33.945-17.521a221.7,221.7,0,0,0-36.136-9.855l-27.375-6.57a173.8,173.8,0,0,1-21.9-7.665,41.668,41.668,0,0,1-14.235-9.855c-3.286-4.38-5.476-8.76-4.381-14.235a35.587,35.587,0,0,1,10.951-26.28c6.57-7.666,18.615-10.951,35.04-10.951,14.235-1.1,29.565,3.285,41.611,10.951,7.665,4.38,14.235,10.95,19.71,18.615l52.56-43.8a124.294,124.294,0,0,0-42.705-32.85c-9.855-5.475-20.8-8.76-31.755-10.95-12.046-2.19-25.186-4.38-38.326-4.38-15.33,0-30.66,2.19-44.895,7.665-13.141,4.38-25.186,12.045-36.136,21.9a93.946,93.946,0,0,0-31.755,71.176,81.179,81.179,0,0,0,8.76,42.705c5.475,10.951,14.235,19.711,24.09,27.376a174.458,174.458,0,0,0,31.756,16.425c12.045,3.285,23,6.57,35.04,9.855,10.95,2.19,20.8,5.475,29.565,7.665,7.665,2.19,15.33,4.38,21.9,8.76A49.138,49.138,0,0,1,805.7,760.864c3.285,5.475,5.475,10.95,4.38,17.521,0,10.95-4.38,20.805-12.045,27.375-7.665,7.665-19.711,10.95-36.136,10.95a89.939,89.939,0,0,1-47.085-13.14c-10.95-6.57-20.806-16.425-28.471-28.47L630.5,822.185c5.475,6.57,10.95,13.14,17.52,18.615a120.689,120.689,0,0,0,30.66,21.9,153.735,153.735,0,0,0,37.231,14.235c15.33,3.285,30.66,5.475,45.99,5.475,16.425,0,32.851-2.19,48.181-8.76,13.14-5.475,26.28-13.14,37.23-23,20.8-19.71,31.756-47.085,31.756-75.555A110.889,110.889,0,0,0,869.211,730.2Z" fill="#38062b"/>
  <path d="M252.719,272.489c-6.57-10.95-14.235-20.806-25.185-29.566-9.855-7.665-21.9-13.14-33.945-17.52a221.729,221.729,0,0,0-36.136-9.855c-9.855-2.19-18.615-4.38-27.375-6.57a173.8,173.8,0,0,1-21.9-7.665,41.672,41.672,0,0,1-14.236-9.855c-1.095-3.285-3.285-8.76-3.285-14.235a35.589,35.589,0,0,1,10.951-26.281c6.57-7.665,18.615-10.95,35.04-10.95,14.235-1.095,29.565,3.285,41.61,10.95,7.665,4.38,14.236,10.95,19.711,18.616l52.56-43.8a124.294,124.294,0,0,0-42.7-32.85c-9.855-5.475-20.806-8.76-31.756-10.95-12.045-2.191-25.185-4.381-38.325-4.381-15.33,0-30.66,2.19-44.9,7.666-13.14,4.38-25.185,12.045-36.135,21.9a93.945,93.945,0,0,0-31.755,71.176,81.179,81.179,0,0,0,8.76,42.7c5.475,10.95,14.235,19.71,24.09,27.375a174.423,174.423,0,0,0,31.755,16.426,209.888,209.888,0,0,0,35.041,9.855c10.95,2.19,20.8,5.475,29.565,7.665,7.665,2.19,15.33,4.38,21.9,8.76A49.155,49.155,0,0,1,190.3,303.149c3.285,5.475,5.475,10.95,4.38,17.52,0,10.95-4.38,20.806-12.046,27.376C174.973,355.71,162.928,359,146.5,359a89.945,89.945,0,0,1-47.086-13.14c-10.95-6.571-20.805-16.426-28.47-28.471L15.1,364.47c5.476,6.57,10.951,13.14,17.521,18.615a120.661,120.661,0,0,0,30.66,21.9,153.728,153.728,0,0,0,37.23,14.235c15.331,3.285,30.661,5.475,45.991,5.475,16.425,0,32.85-2.19,48.181-8.76,13.14-5.475,26.28-13.14,37.23-23,20.805-19.71,31.755-47.085,31.755-75.556A93.8,93.8,0,0,0,252.719,272.489Z" fill="#38062b"/>
  <rect x="1998.169" y="533.102" width="66.796" height="333.979" fill="#38062b"/>
  <path d="M2340.909,697.354c-29.566-61.321-75.556-128.117-137.972-192.723h-72.271V838.61h66.8V617.418c53.655,55.845,102.931,143.446,136.876,221.192H2408.8V504.631H2342V697.354Z" fill="#38062b"/>
  <path d="M1343.352,298.769c-29.565-61.321-75.556-128.116-137.972-192.722h-72.27V440.026h66.8V218.833c53.656,55.846,102.932,143.447,136.877,221.193h74.461V106.047h-66.8V298.769Z" fill="#38062b"/>
  <path d="M1644.48,822.185c19.711-16.425,30.661-40.515,30.661-72.271,0-62.415-35.041-96.361-101.836-96.361H1470.373V987.532h67.891V845.18h25.185c39.421,23,66.8,75.556,66.8,141.257h72.271C1701.421,907.6,1671.856,853.94,1644.48,822.185Zm-107.311-109.5h30.661c24.09,0,38.325,15.33,38.325,38.325s-13.14,39.421-38.325,39.421h-30.661Z" fill="#38062b"/>
  <path d="M2750.443,706.114H2628.9v66.8h59.13v16.425c-14.235,19.71-33.945,41.61-77.746,40.515-54.75-1.1-94.171-49.275-94.171-105.121s42.706-100.741,94.171-100.741a89.06,89.06,0,0,1,58.036,21.9l55.846-44.895c-29.566-31.756-70.081-49.276-113.881-49.276-89.791,0-163.157,77.746-163.157,174.107s73.366,174.107,163.157,174.107c61.32,0,110.6-29.565,140.161-79.936C2751.538,817.805,2751.538,711.589,2750.443,706.114Z" fill="#38062b"/>
  <path d="M502.382,367.755H308.565V31.586H502.382V89.622H379.741v73.365H493.622v58.036H379.741v86.506H502.382Z" fill="#38062b"/>
  <path d="M1071.789,380.9H879.067V44.726h193.817v58.036H950.242v73.366h113.882v58.035H950.242v86.506h122.642V380.9Z" fill="#38062b"/>
</svg>
